<svg width="7932" height="456" viewBox="0 0 7932 456" fill="none" xmlns="http://www.w3.org/2000/svg">
<rect x="7271" width="661" height="456" rx="7" fill="black"/>
<path d="M7271 7C7271 3.13401 7274.13 0 7278 0H7925C7928.87 0 7932 3.13401 7932 7V50H7271V7Z" fill="#C4C4C4"/>
<circle cx="7299" cy="26" r="16" fill="#645F61"/>
<circle cx="7338" cy="26" r="16" fill="#827F80"/>
<circle cx="7377" cy="26" r="16" fill="#A7A3A4"/>
<circle cx="7299" cy="26" r="16" fill="#ED6A5E"/>
<circle cx="7338" cy="26" r="16" fill="#F5BD4F"/>
<circle cx="7377" cy="26" r="16" fill="#61C454"/>
<circle cx="7299" cy="26" r="16" fill="#ED6A5E"/>
<path fill-rule="evenodd" clip-rule="evenodd" d="M7299.13 27.9016L7304.45 33.2194L7306.22 31.4516L7300.9 26.1339L7306.22 20.8161L7304.45 19.0484L7299.13 24.3661L7293.82 19.0484L7292.05 20.8161L7297.37 26.1339L7292.05 31.4516L7293.82 33.2194L7299.13 27.9016Z" fill="black" fill-opacity="0.4"/>
<circle cx="7338" cy="26" r="16" fill="#F5BD4F"/>
<path d="M7347.42 26L7328 26" stroke="black" stroke-opacity="0.4" stroke-width="2.5"/>
<circle cx="7377" cy="26" r="16" fill="#61C454"/>
<path d="M7371.72 20.725L7381.17 20.725L7376.67 25.225L7371.72 30.175L7371.72 20.725Z" fill="#3C7934" fill-opacity="0.8"/>
<path d="M7382.78 31.775L7373.33 31.775L7377.83 27.275L7382.78 22.325L7382.78 31.775Z" fill="#3C7934" fill-opacity="0.8"/>
<path d="M7324.26 123.472H7310.14V148H7296.37V89.788H7310.14V112.132H7324.26V89.788H7338.03V148H7324.26V123.472ZM7367.48 80.044C7369.78 80.044 7371.66 80.772 7373.11 82.228C7374.57 83.628 7375.3 85.392 7375.3 87.52C7375.3 89.704 7374.57 91.496 7373.11 92.896C7371.66 94.296 7369.78 94.996 7367.48 94.996C7365.19 94.996 7363.28 94.296 7361.77 92.896C7360.32 91.44 7359.59 89.648 7359.59 87.52C7359.59 85.392 7360.32 83.628 7361.77 82.228C7363.28 80.772 7365.19 80.044 7367.48 80.044ZM7375.46 138.928H7386.89V148H7349.59V138.928H7362.19V112.468H7350.01V103.396H7375.46V138.928ZM7490.81 130.948C7490.81 134.588 7489.86 137.808 7487.96 140.608C7486.05 143.408 7483.31 145.592 7479.73 147.16C7476.2 148.672 7472 149.428 7467.13 149.428C7457.49 149.428 7449.82 146.628 7444.11 141.028L7451.08 133.3C7455.51 137.22 7460.74 139.18 7466.79 139.18C7469.7 139.18 7472.03 138.564 7473.76 137.332C7475.55 136.044 7476.45 134.28 7476.45 132.04C7476.45 129.912 7475.69 128.26 7474.18 127.084C7472.73 125.852 7469.98 124.62 7465.95 123.388C7459.12 121.316 7454.27 118.88 7451.42 116.08C7448.56 113.28 7447.13 109.668 7447.13 105.244C7447.13 101.772 7448.09 98.748 7449.99 96.172C7451.95 93.596 7454.58 91.636 7457.89 90.292C7461.25 88.948 7464.97 88.276 7469.06 88.276C7477.63 88.276 7484.57 90.796 7489.89 95.836L7483.42 103.312C7481.46 101.688 7479.33 100.484 7477.04 99.7C7474.8 98.86 7472.47 98.44 7470.07 98.44C7467.38 98.44 7465.25 98.944 7463.68 99.952C7462.17 100.904 7461.41 102.304 7461.41 104.152C7461.41 105.384 7461.75 106.42 7462.42 107.26C7463.15 108.1 7464.33 108.884 7465.95 109.612C7467.57 110.34 7470.01 111.208 7473.26 112.216C7479.19 114.008 7483.59 116.332 7486.45 119.188C7489.36 121.988 7490.81 125.908 7490.81 130.948ZM7524.04 101.884C7529.64 101.884 7533.76 103.956 7536.39 108.1C7539.02 112.188 7540.34 118.012 7540.34 125.572C7540.34 130.164 7539.64 134.28 7538.24 137.92C7536.9 141.504 7534.94 144.332 7532.36 146.404C7529.78 148.42 7526.73 149.428 7523.2 149.428C7518.89 149.428 7515.36 147.888 7512.62 144.808V165.22L7499.35 166.648V103.396H7511.11L7511.7 108.352C7513.43 106.168 7515.36 104.544 7517.49 103.48C7519.68 102.416 7521.86 101.884 7524.04 101.884ZM7519.93 111.712C7517.13 111.712 7514.69 113.448 7512.62 116.92V135.736C7513.57 137.08 7514.55 138.088 7515.56 138.76C7516.62 139.376 7517.83 139.684 7519.17 139.684C7521.64 139.684 7523.48 138.592 7524.72 136.408C7526 134.168 7526.65 130.612 7526.65 125.74C7526.65 120.476 7526.09 116.836 7524.97 114.82C7523.85 112.748 7522.17 111.712 7519.93 111.712ZM7561.22 129.604C7562.06 136.38 7565.65 139.768 7571.98 139.768C7575.78 139.768 7579.59 138.536 7583.4 136.072L7588.69 143.296C7586.51 145.2 7583.9 146.712 7580.88 147.832C7577.86 148.896 7574.52 149.428 7570.88 149.428C7565.9 149.428 7561.67 148.448 7558.2 146.488C7554.73 144.472 7552.1 141.7 7550.3 138.172C7548.57 134.588 7547.7 130.444 7547.7 125.74C7547.7 121.26 7548.54 117.228 7550.22 113.644C7551.96 110.004 7554.45 107.148 7557.7 105.076C7561 102.948 7564.92 101.884 7569.46 101.884C7573.71 101.884 7577.41 102.808 7580.54 104.656C7583.68 106.448 7586.09 109.08 7587.77 112.552C7589.5 115.968 7590.37 120.056 7590.37 124.816C7590.37 126.664 7590.29 128.26 7590.12 129.604H7561.22ZM7569.46 110.788C7567.05 110.788 7565.12 111.684 7563.66 113.476C7562.2 115.212 7561.34 117.9 7561.06 121.54H7577.44C7577.32 114.372 7574.66 110.788 7569.46 110.788ZM7611.59 129.604C7612.43 136.38 7616.02 139.768 7622.34 139.768C7626.15 139.768 7629.96 138.536 7633.77 136.072L7639.06 143.296C7636.88 145.2 7634.27 146.712 7631.25 147.832C7628.22 148.896 7624.89 149.428 7621.25 149.428C7616.27 149.428 7612.04 148.448 7608.57 146.488C7605.1 144.472 7602.46 141.7 7600.67 138.172C7598.94 134.588 7598.07 130.444 7598.07 125.74C7598.07 121.26 7598.91 117.228 7600.59 113.644C7602.32 110.004 7604.82 107.148 7608.06 105.076C7611.37 102.948 7615.29 101.884 7619.82 101.884C7624.08 101.884 7627.78 102.808 7630.91 104.656C7634.05 106.448 7636.46 109.08 7638.14 112.552C7639.87 115.968 7640.74 120.056 7640.74 124.816C7640.74 126.664 7640.66 128.26 7640.49 129.604H7611.59ZM7619.82 110.788C7617.42 110.788 7615.48 111.684 7614.03 113.476C7612.57 115.212 7611.7 117.9 7611.42 121.54H7627.8C7627.69 114.372 7625.03 110.788 7619.82 110.788ZM7663.72 148H7650.45V85.672L7663.72 84.244V148ZM7678.09 123.136L7693.96 148H7678.84L7664.23 123.556L7678.93 103.396H7692.79L7678.09 123.136Z" fill="white"/>
<rect x="6610" width="661" height="456" rx="7" fill="black"/>
<path d="M6610 7C6610 3.13401 6613.13 0 6617 0H7264C7267.87 0 7271 3.13401 7271 7V50H6610V7Z" fill="#C4C4C4"/>
<circle cx="6638" cy="26" r="16" fill="#645F61"/>
<circle cx="6677" cy="26" r="16" fill="#827F80"/>
<circle cx="6716" cy="26" r="16" fill="#A7A3A4"/>
<circle cx="6638" cy="26" r="16" fill="#ED6A5E"/>
<circle cx="6677" cy="26" r="16" fill="#F5BD4F"/>
<circle cx="6716" cy="26" r="16" fill="#61C454"/>
<circle cx="6638" cy="26" r="16" fill="#ED6A5E"/>
<path fill-rule="evenodd" clip-rule="evenodd" d="M6638.13 27.9016L6643.45 33.2194L6645.22 31.4516L6639.9 26.1339L6645.22 20.8161L6643.45 19.0484L6638.13 24.3661L6632.82 19.0484L6631.05 20.8161L6636.37 26.1339L6631.05 31.4516L6632.82 33.2194L6638.13 27.9016Z" fill="black" fill-opacity="0.4"/>
<circle cx="6677" cy="26" r="16" fill="#F5BD4F"/>
<path d="M6686.42 26L6667 26" stroke="black" stroke-opacity="0.4" stroke-width="2.5"/>
<circle cx="6716" cy="26" r="16" fill="#61C454"/>
<path d="M6710.72 20.725L6720.17 20.725L6715.67 25.225L6710.72 30.175L6710.72 20.725Z" fill="#3C7934" fill-opacity="0.8"/>
<path d="M6721.78 31.775L6712.33 31.775L6716.83 27.275L6721.78 22.325L6721.78 31.775Z" fill="#3C7934" fill-opacity="0.8"/>
<path d="M6663.26 123.472H6649.14V148H6635.37V89.788H6649.14V112.132H6663.26V89.788H6677.03V148H6663.26V123.472ZM6706.48 80.044C6708.78 80.044 6710.66 80.772 6712.11 82.228C6713.57 83.628 6714.3 85.392 6714.3 87.52C6714.3 89.704 6713.57 91.496 6712.11 92.896C6710.66 94.296 6708.78 94.996 6706.48 94.996C6704.19 94.996 6702.28 94.296 6700.77 92.896C6699.32 91.44 6698.59 89.648 6698.59 87.52C6698.59 85.392 6699.32 83.628 6700.77 82.228C6702.28 80.772 6704.19 80.044 6706.48 80.044ZM6714.46 138.928H6725.89V148H6688.59V138.928H6701.19V112.468H6689.01V103.396H6714.46V138.928ZM6829.81 130.948C6829.81 134.588 6828.86 137.808 6826.96 140.608C6825.05 143.408 6822.31 145.592 6818.73 147.16C6815.2 148.672 6811 149.428 6806.13 149.428C6796.49 149.428 6788.82 146.628 6783.11 141.028L6790.08 133.3C6794.51 137.22 6799.74 139.18 6805.79 139.18C6808.7 139.18 6811.03 138.564 6812.76 137.332C6814.55 136.044 6815.45 134.28 6815.45 132.04C6815.45 129.912 6814.69 128.26 6813.18 127.084C6811.73 125.852 6808.98 124.62 6804.95 123.388C6798.12 121.316 6793.27 118.88 6790.42 116.08C6787.56 113.28 6786.13 109.668 6786.13 105.244C6786.13 101.772 6787.09 98.748 6788.99 96.172C6790.95 93.596 6793.58 91.636 6796.89 90.292C6800.25 88.948 6803.97 88.276 6808.06 88.276C6816.63 88.276 6823.57 90.796 6828.89 95.836L6822.42 103.312C6820.46 101.688 6818.33 100.484 6816.04 99.7C6813.8 98.86 6811.47 98.44 6809.07 98.44C6806.38 98.44 6804.25 98.944 6802.68 99.952C6801.17 100.904 6800.41 102.304 6800.41 104.152C6800.41 105.384 6800.75 106.42 6801.42 107.26C6802.15 108.1 6803.33 108.884 6804.95 109.612C6806.57 110.34 6809.01 111.208 6812.26 112.216C6818.19 114.008 6822.59 116.332 6825.45 119.188C6828.36 121.988 6829.81 125.908 6829.81 130.948ZM6863.04 101.884C6868.64 101.884 6872.76 103.956 6875.39 108.1C6878.02 112.188 6879.34 118.012 6879.34 125.572C6879.34 130.164 6878.64 134.28 6877.24 137.92C6875.9 141.504 6873.94 144.332 6871.36 146.404C6868.78 148.42 6865.73 149.428 6862.2 149.428C6857.89 149.428 6854.36 147.888 6851.62 144.808V165.22L6838.35 166.648V103.396H6850.11L6850.7 108.352C6852.43 106.168 6854.36 104.544 6856.49 103.48C6858.68 102.416 6860.86 101.884 6863.04 101.884ZM6858.93 111.712C6856.13 111.712 6853.69 113.448 6851.62 116.92V135.736C6852.57 137.08 6853.55 138.088 6854.56 138.76C6855.62 139.376 6856.83 139.684 6858.17 139.684C6860.64 139.684 6862.48 138.592 6863.72 136.408C6865 134.168 6865.65 130.612 6865.65 125.74C6865.65 120.476 6865.09 116.836 6863.97 114.82C6862.85 112.748 6861.17 111.712 6858.93 111.712ZM6900.22 129.604C6901.06 136.38 6904.65 139.768 6910.98 139.768C6914.78 139.768 6918.59 138.536 6922.4 136.072L6927.69 143.296C6925.51 145.2 6922.9 146.712 6919.88 147.832C6916.86 148.896 6913.52 149.428 6909.88 149.428C6904.9 149.428 6900.67 148.448 6897.2 146.488C6893.73 144.472 6891.1 141.7 6889.3 138.172C6887.57 134.588 6886.7 130.444 6886.7 125.74C6886.7 121.26 6887.54 117.228 6889.22 113.644C6890.96 110.004 6893.45 107.148 6896.7 105.076C6900 102.948 6903.92 101.884 6908.46 101.884C6912.71 101.884 6916.41 102.808 6919.54 104.656C6922.68 106.448 6925.09 109.08 6926.77 112.552C6928.5 115.968 6929.37 120.056 6929.37 124.816C6929.37 126.664 6929.29 128.26 6929.12 129.604H6900.22ZM6908.46 110.788C6906.05 110.788 6904.12 111.684 6902.66 113.476C6901.2 115.212 6900.34 117.9 6900.06 121.54H6916.44C6916.32 114.372 6913.66 110.788 6908.46 110.788ZM6950.59 129.604C6951.43 136.38 6955.02 139.768 6961.34 139.768C6965.15 139.768 6968.96 138.536 6972.77 136.072L6978.06 143.296C6975.88 145.2 6973.27 146.712 6970.25 147.832C6967.22 148.896 6963.89 149.428 6960.25 149.428C6955.27 149.428 6951.04 148.448 6947.57 146.488C6944.1 144.472 6941.46 141.7 6939.67 138.172C6937.94 134.588 6937.07 130.444 6937.07 125.74C6937.07 121.26 6937.91 117.228 6939.59 113.644C6941.32 110.004 6943.82 107.148 6947.06 105.076C6950.37 102.948 6954.29 101.884 6958.82 101.884C6963.08 101.884 6966.78 102.808 6969.91 104.656C6973.05 106.448 6975.46 109.08 6977.14 112.552C6978.87 115.968 6979.74 120.056 6979.74 124.816C6979.74 126.664 6979.66 128.26 6979.49 129.604H6950.59ZM6958.82 110.788C6956.42 110.788 6954.48 111.684 6953.03 113.476C6951.57 115.212 6950.7 117.9 6950.42 121.54H6966.8C6966.69 114.372 6964.03 110.788 6958.82 110.788ZM7002.72 148H6989.45V85.672L7002.72 84.244V148ZM7017.09 123.136L7032.96 148H7017.84L7003.23 123.556L7017.93 103.396H7031.79L7017.09 123.136Z" fill="white"/>
<rect x="7034" y="67" width="52" height="84" fill="white" fill-opacity="0.9"/>
<rect x="5949" width="661" height="456" rx="7" fill="black"/>
<path d="M5949 7C5949 3.13401 5952.13 0 5956 0H6603C6606.87 0 6610 3.13401 6610 7V50H5949V7Z" fill="#C4C4C4"/>
<circle cx="5977" cy="26" r="16" fill="#645F61"/>
<circle cx="6016" cy="26" r="16" fill="#827F80"/>
<circle cx="6055" cy="26" r="16" fill="#A7A3A4"/>
<circle cx="5977" cy="26" r="16" fill="#ED6A5E"/>
<circle cx="6016" cy="26" r="16" fill="#F5BD4F"/>
<circle cx="6055" cy="26" r="16" fill="#61C454"/>
<circle cx="5977" cy="26" r="16" fill="#ED6A5E"/>
<path fill-rule="evenodd" clip-rule="evenodd" d="M5977.13 27.9016L5982.45 33.2194L5984.22 31.4516L5978.9 26.1339L5984.22 20.8161L5982.45 19.0484L5977.13 24.3661L5971.82 19.0484L5970.05 20.8161L5975.37 26.1339L5970.05 31.4516L5971.82 33.2194L5977.13 27.9016Z" fill="black" fill-opacity="0.4"/>
<circle cx="6016" cy="26" r="16" fill="#F5BD4F"/>
<path d="M6025.42 26L6006 26" stroke="black" stroke-opacity="0.4" stroke-width="2.5"/>
<circle cx="6055" cy="26" r="16" fill="#61C454"/>
<path d="M6049.72 20.725L6059.17 20.725L6054.67 25.225L6049.72 30.175L6049.72 20.725Z" fill="#3C7934" fill-opacity="0.8"/>
<path d="M6060.78 31.775L6051.33 31.775L6055.83 27.275L6060.78 22.325L6060.78 31.775Z" fill="#3C7934" fill-opacity="0.8"/>
<path d="M6002.26 123.472H5988.14V148H5974.37V89.788H5988.14V112.132H6002.26V89.788H6016.03V148H6002.26V123.472ZM6045.48 80.044C6047.78 80.044 6049.66 80.772 6051.11 82.228C6052.57 83.628 6053.3 85.392 6053.3 87.52C6053.3 89.704 6052.57 91.496 6051.11 92.896C6049.66 94.296 6047.78 94.996 6045.48 94.996C6043.19 94.996 6041.28 94.296 6039.77 92.896C6038.32 91.44 6037.59 89.648 6037.59 87.52C6037.59 85.392 6038.32 83.628 6039.77 82.228C6041.28 80.772 6043.19 80.044 6045.48 80.044ZM6053.46 138.928H6064.89V148H6027.59V138.928H6040.19V112.468H6028.01V103.396H6053.46V138.928ZM6168.81 130.948C6168.81 134.588 6167.86 137.808 6165.96 140.608C6164.05 143.408 6161.31 145.592 6157.73 147.16C6154.2 148.672 6150 149.428 6145.13 149.428C6135.49 149.428 6127.82 146.628 6122.11 141.028L6129.08 133.3C6133.51 137.22 6138.74 139.18 6144.79 139.18C6147.7 139.18 6150.03 138.564 6151.76 137.332C6153.55 136.044 6154.45 134.28 6154.45 132.04C6154.45 129.912 6153.69 128.26 6152.18 127.084C6150.73 125.852 6147.98 124.62 6143.95 123.388C6137.12 121.316 6132.27 118.88 6129.42 116.08C6126.56 113.28 6125.13 109.668 6125.13 105.244C6125.13 101.772 6126.09 98.748 6127.99 96.172C6129.95 93.596 6132.58 91.636 6135.89 90.292C6139.25 88.948 6142.97 88.276 6147.06 88.276C6155.63 88.276 6162.57 90.796 6167.89 95.836L6161.42 103.312C6159.46 101.688 6157.33 100.484 6155.04 99.7C6152.8 98.86 6150.47 98.44 6148.07 98.44C6145.38 98.44 6143.25 98.944 6141.68 99.952C6140.17 100.904 6139.41 102.304 6139.41 104.152C6139.41 105.384 6139.75 106.42 6140.42 107.26C6141.15 108.1 6142.33 108.884 6143.95 109.612C6145.57 110.34 6148.01 111.208 6151.26 112.216C6157.19 114.008 6161.59 116.332 6164.45 119.188C6167.36 121.988 6168.81 125.908 6168.81 130.948ZM6202.04 101.884C6207.64 101.884 6211.76 103.956 6214.39 108.1C6217.02 112.188 6218.34 118.012 6218.34 125.572C6218.34 130.164 6217.64 134.28 6216.24 137.92C6214.9 141.504 6212.94 144.332 6210.36 146.404C6207.78 148.42 6204.73 149.428 6201.2 149.428C6196.89 149.428 6193.36 147.888 6190.62 144.808V165.22L6177.35 166.648V103.396H6189.11L6189.7 108.352C6191.43 106.168 6193.36 104.544 6195.49 103.48C6197.68 102.416 6199.86 101.884 6202.04 101.884ZM6197.93 111.712C6195.13 111.712 6192.69 113.448 6190.62 116.92V135.736C6191.57 137.08 6192.55 138.088 6193.56 138.76C6194.62 139.376 6195.83 139.684 6197.17 139.684C6199.64 139.684 6201.48 138.592 6202.72 136.408C6204 134.168 6204.65 130.612 6204.65 125.74C6204.65 120.476 6204.09 116.836 6202.97 114.82C6201.85 112.748 6200.17 111.712 6197.93 111.712ZM6239.22 129.604C6240.06 136.38 6243.65 139.768 6249.98 139.768C6253.78 139.768 6257.59 138.536 6261.4 136.072L6266.69 143.296C6264.51 145.2 6261.9 146.712 6258.88 147.832C6255.86 148.896 6252.52 149.428 6248.88 149.428C6243.9 149.428 6239.67 148.448 6236.2 146.488C6232.73 144.472 6230.1 141.7 6228.3 138.172C6226.57 134.588 6225.7 130.444 6225.7 125.74C6225.7 121.26 6226.54 117.228 6228.22 113.644C6229.96 110.004 6232.45 107.148 6235.7 105.076C6239 102.948 6242.92 101.884 6247.46 101.884C6251.71 101.884 6255.41 102.808 6258.54 104.656C6261.68 106.448 6264.09 109.08 6265.77 112.552C6267.5 115.968 6268.37 120.056 6268.37 124.816C6268.37 126.664 6268.29 128.26 6268.12 129.604H6239.22ZM6247.46 110.788C6245.05 110.788 6243.12 111.684 6241.66 113.476C6240.2 115.212 6239.34 117.9 6239.06 121.54H6255.44C6255.32 114.372 6252.66 110.788 6247.46 110.788ZM6289.59 129.604C6290.43 136.38 6294.02 139.768 6300.34 139.768C6304.15 139.768 6307.96 138.536 6311.77 136.072L6317.06 143.296C6314.88 145.2 6312.27 146.712 6309.25 147.832C6306.22 148.896 6302.89 149.428 6299.25 149.428C6294.27 149.428 6290.04 148.448 6286.57 146.488C6283.1 144.472 6280.46 141.7 6278.67 138.172C6276.94 134.588 6276.07 130.444 6276.07 125.74C6276.07 121.26 6276.91 117.228 6278.59 113.644C6280.32 110.004 6282.82 107.148 6286.06 105.076C6289.37 102.948 6293.29 101.884 6297.82 101.884C6302.08 101.884 6305.78 102.808 6308.91 104.656C6312.05 106.448 6314.46 109.08 6316.14 112.552C6317.87 115.968 6318.74 120.056 6318.74 124.816C6318.74 126.664 6318.66 128.26 6318.49 129.604H6289.59ZM6297.82 110.788C6295.42 110.788 6293.48 111.684 6292.03 113.476C6290.57 115.212 6289.7 117.9 6289.42 121.54H6305.8C6305.69 114.372 6303.03 110.788 6297.82 110.788ZM6341.72 148H6328.45V85.672L6341.72 84.244V148ZM6356.09 123.136L6371.96 148H6356.84L6342.23 123.556L6356.93 103.396H6370.79L6356.09 123.136Z" fill="white"/>
<rect x="5288" width="661" height="456" rx="7" fill="black"/>
<path d="M5288 7C5288 3.13401 5291.13 0 5295 0H5942C5945.87 0 5949 3.13401 5949 7V50H5288V7Z" fill="#C4C4C4"/>
<circle cx="5316" cy="26" r="16" fill="#645F61"/>
<circle cx="5355" cy="26" r="16" fill="#827F80"/>
<circle cx="5394" cy="26" r="16" fill="#A7A3A4"/>
<circle cx="5316" cy="26" r="16" fill="#ED6A5E"/>
<circle cx="5355" cy="26" r="16" fill="#F5BD4F"/>
<circle cx="5394" cy="26" r="16" fill="#61C454"/>
<circle cx="5316" cy="26" r="16" fill="#ED6A5E"/>
<path fill-rule="evenodd" clip-rule="evenodd" d="M5316.13 27.9016L5321.45 33.2194L5323.22 31.4516L5317.9 26.1339L5323.22 20.8161L5321.45 19.0484L5316.13 24.3661L5310.82 19.0484L5309.05 20.8161L5314.37 26.1339L5309.05 31.4516L5310.82 33.2194L5316.13 27.9016Z" fill="black" fill-opacity="0.4"/>
<circle cx="5355" cy="26" r="16" fill="#F5BD4F"/>
<path d="M5364.42 26L5345 26" stroke="black" stroke-opacity="0.4" stroke-width="2.5"/>
<circle cx="5394" cy="26" r="16" fill="#61C454"/>
<path d="M5388.72 20.725L5398.17 20.725L5393.67 25.225L5388.72 30.175L5388.72 20.725Z" fill="#3C7934" fill-opacity="0.8"/>
<path d="M5399.78 31.775L5390.33 31.775L5394.83 27.275L5399.78 22.325L5399.78 31.775Z" fill="#3C7934" fill-opacity="0.8"/>
<path d="M5341.26 123.472H5327.14V148H5313.37V89.788H5327.14V112.132H5341.26V89.788H5355.03V148H5341.26V123.472ZM5384.48 80.044C5386.78 80.044 5388.66 80.772 5390.11 82.228C5391.57 83.628 5392.3 85.392 5392.3 87.52C5392.3 89.704 5391.57 91.496 5390.11 92.896C5388.66 94.296 5386.78 94.996 5384.48 94.996C5382.19 94.996 5380.28 94.296 5378.77 92.896C5377.32 91.44 5376.59 89.648 5376.59 87.52C5376.59 85.392 5377.32 83.628 5378.77 82.228C5380.28 80.772 5382.19 80.044 5384.48 80.044ZM5392.46 138.928H5403.89V148H5366.59V138.928H5379.19V112.468H5367.01V103.396H5392.46V138.928ZM5507.81 130.948C5507.81 134.588 5506.86 137.808 5504.96 140.608C5503.05 143.408 5500.31 145.592 5496.73 147.16C5493.2 148.672 5489 149.428 5484.13 149.428C5474.49 149.428 5466.82 146.628 5461.11 141.028L5468.08 133.3C5472.51 137.22 5477.74 139.18 5483.79 139.18C5486.7 139.18 5489.03 138.564 5490.76 137.332C5492.55 136.044 5493.45 134.28 5493.45 132.04C5493.45 129.912 5492.69 128.26 5491.18 127.084C5489.73 125.852 5486.98 124.62 5482.95 123.388C5476.12 121.316 5471.27 118.88 5468.42 116.08C5465.56 113.28 5464.13 109.668 5464.13 105.244C5464.13 101.772 5465.09 98.748 5466.99 96.172C5468.95 93.596 5471.58 91.636 5474.89 90.292C5478.25 88.948 5481.97 88.276 5486.06 88.276C5494.63 88.276 5501.57 90.796 5506.89 95.836L5500.42 103.312C5498.46 101.688 5496.33 100.484 5494.04 99.7C5491.8 98.86 5489.47 98.44 5487.07 98.44C5484.38 98.44 5482.25 98.944 5480.68 99.952C5479.17 100.904 5478.41 102.304 5478.41 104.152C5478.41 105.384 5478.75 106.42 5479.42 107.26C5480.15 108.1 5481.33 108.884 5482.95 109.612C5484.57 110.34 5487.01 111.208 5490.26 112.216C5496.19 114.008 5500.59 116.332 5503.45 119.188C5506.36 121.988 5507.81 125.908 5507.81 130.948ZM5541.04 101.884C5546.64 101.884 5550.76 103.956 5553.39 108.1C5556.02 112.188 5557.34 118.012 5557.34 125.572C5557.34 130.164 5556.64 134.28 5555.24 137.92C5553.9 141.504 5551.94 144.332 5549.36 146.404C5546.78 148.42 5543.73 149.428 5540.2 149.428C5535.89 149.428 5532.36 147.888 5529.62 144.808V165.22L5516.35 166.648V103.396H5528.11L5528.7 108.352C5530.43 106.168 5532.36 104.544 5534.49 103.48C5536.68 102.416 5538.86 101.884 5541.04 101.884ZM5536.93 111.712C5534.13 111.712 5531.69 113.448 5529.62 116.92V135.736C5530.57 137.08 5531.55 138.088 5532.56 138.76C5533.62 139.376 5534.83 139.684 5536.17 139.684C5538.64 139.684 5540.48 138.592 5541.72 136.408C5543 134.168 5543.65 130.612 5543.65 125.74C5543.65 120.476 5543.09 116.836 5541.97 114.82C5540.85 112.748 5539.17 111.712 5536.93 111.712ZM5578.22 129.604C5579.06 136.38 5582.65 139.768 5588.98 139.768C5592.78 139.768 5596.59 138.536 5600.4 136.072L5605.69 143.296C5603.51 145.2 5600.9 146.712 5597.88 147.832C5594.86 148.896 5591.52 149.428 5587.88 149.428C5582.9 149.428 5578.67 148.448 5575.2 146.488C5571.73 144.472 5569.1 141.7 5567.3 138.172C5565.57 134.588 5564.7 130.444 5564.7 125.74C5564.7 121.26 5565.54 117.228 5567.22 113.644C5568.96 110.004 5571.45 107.148 5574.7 105.076C5578 102.948 5581.92 101.884 5586.46 101.884C5590.71 101.884 5594.41 102.808 5597.54 104.656C5600.68 106.448 5603.09 109.08 5604.77 112.552C5606.5 115.968 5607.37 120.056 5607.37 124.816C5607.37 126.664 5607.29 128.26 5607.12 129.604H5578.22ZM5586.46 110.788C5584.05 110.788 5582.12 111.684 5580.66 113.476C5579.2 115.212 5578.34 117.9 5578.06 121.54H5594.44C5594.32 114.372 5591.66 110.788 5586.46 110.788ZM5628.59 129.604C5629.43 136.38 5633.02 139.768 5639.34 139.768C5643.15 139.768 5646.96 138.536 5650.77 136.072L5656.06 143.296C5653.88 145.2 5651.27 146.712 5648.25 147.832C5645.22 148.896 5641.89 149.428 5638.25 149.428C5633.27 149.428 5629.04 148.448 5625.57 146.488C5622.1 144.472 5619.46 141.7 5617.67 138.172C5615.94 134.588 5615.07 130.444 5615.07 125.74C5615.07 121.26 5615.91 117.228 5617.59 113.644C5619.32 110.004 5621.82 107.148 5625.06 105.076C5628.37 102.948 5632.29 101.884 5636.82 101.884C5641.08 101.884 5644.78 102.808 5647.91 104.656C5651.05 106.448 5653.46 109.08 5655.14 112.552C5656.87 115.968 5657.74 120.056 5657.74 124.816C5657.74 126.664 5657.66 128.26 5657.49 129.604H5628.59ZM5636.82 110.788C5634.42 110.788 5632.48 111.684 5631.03 113.476C5629.57 115.212 5628.7 117.9 5628.42 121.54H5644.8C5644.69 114.372 5642.03 110.788 5636.82 110.788ZM5680.72 148H5667.45V85.672L5680.72 84.244V148ZM5695.09 123.136L5710.96 148H5695.84L5681.23 123.556L5695.93 103.396H5709.79L5695.09 123.136Z" fill="white"/>
<rect x="5712" y="67" width="52" height="84" fill="white" fill-opacity="0.9"/>
<rect x="4627" width="661" height="456" rx="7" fill="black"/>
<path d="M4627 7C4627 3.13401 4630.13 0 4634 0H5281C5284.87 0 5288 3.13401 5288 7V50H4627V7Z" fill="#C4C4C4"/>
<circle cx="4655" cy="26" r="16" fill="#645F61"/>
<circle cx="4694" cy="26" r="16" fill="#827F80"/>
<circle cx="4733" cy="26" r="16" fill="#A7A3A4"/>
<circle cx="4655" cy="26" r="16" fill="#ED6A5E"/>
<circle cx="4694" cy="26" r="16" fill="#F5BD4F"/>
<circle cx="4733" cy="26" r="16" fill="#61C454"/>
<circle cx="4655" cy="26" r="16" fill="#ED6A5E"/>
<path fill-rule="evenodd" clip-rule="evenodd" d="M4655.13 27.9016L4660.45 33.2194L4662.22 31.4516L4656.9 26.1339L4662.22 20.8161L4660.45 19.0484L4655.13 24.3661L4649.82 19.0484L4648.05 20.8161L4653.37 26.1339L4648.05 31.4516L4649.82 33.2194L4655.13 27.9016Z" fill="black" fill-opacity="0.4"/>
<circle cx="4694" cy="26" r="16" fill="#F5BD4F"/>
<path d="M4703.42 26L4684 26" stroke="black" stroke-opacity="0.4" stroke-width="2.5"/>
<circle cx="4733" cy="26" r="16" fill="#61C454"/>
<path d="M4727.72 20.725L4737.17 20.725L4732.67 25.225L4727.72 30.175L4727.72 20.725Z" fill="#3C7934" fill-opacity="0.8"/>
<path d="M4738.78 31.775L4729.33 31.775L4733.83 27.275L4738.78 22.325L4738.78 31.775Z" fill="#3C7934" fill-opacity="0.8"/>
<path d="M4680.26 123.472H4666.14V148H4652.37V89.788H4666.14V112.132H4680.26V89.788H4694.03V148H4680.26V123.472ZM4723.48 80.044C4725.78 80.044 4727.66 80.772 4729.11 82.228C4730.57 83.628 4731.3 85.392 4731.3 87.52C4731.3 89.704 4730.57 91.496 4729.11 92.896C4727.66 94.296 4725.78 94.996 4723.48 94.996C4721.19 94.996 4719.28 94.296 4717.77 92.896C4716.32 91.44 4715.59 89.648 4715.59 87.52C4715.59 85.392 4716.32 83.628 4717.77 82.228C4719.28 80.772 4721.19 80.044 4723.48 80.044ZM4731.46 138.928H4742.89V148H4705.59V138.928H4718.19V112.468H4706.01V103.396H4731.46V138.928ZM4846.81 130.948C4846.81 134.588 4845.86 137.808 4843.96 140.608C4842.05 143.408 4839.31 145.592 4835.73 147.16C4832.2 148.672 4828 149.428 4823.13 149.428C4813.49 149.428 4805.82 146.628 4800.11 141.028L4807.08 133.3C4811.51 137.22 4816.74 139.18 4822.79 139.18C4825.7 139.18 4828.03 138.564 4829.76 137.332C4831.55 136.044 4832.45 134.28 4832.45 132.04C4832.45 129.912 4831.69 128.26 4830.18 127.084C4828.73 125.852 4825.98 124.62 4821.95 123.388C4815.12 121.316 4810.27 118.88 4807.42 116.08C4804.56 113.28 4803.13 109.668 4803.13 105.244C4803.13 101.772 4804.09 98.748 4805.99 96.172C4807.95 93.596 4810.58 91.636 4813.89 90.292C4817.25 88.948 4820.97 88.276 4825.06 88.276C4833.63 88.276 4840.57 90.796 4845.89 95.836L4839.42 103.312C4837.46 101.688 4835.33 100.484 4833.04 99.7C4830.8 98.86 4828.47 98.44 4826.07 98.44C4823.38 98.44 4821.25 98.944 4819.68 99.952C4818.17 100.904 4817.41 102.304 4817.41 104.152C4817.41 105.384 4817.75 106.42 4818.42 107.26C4819.15 108.1 4820.33 108.884 4821.95 109.612C4823.57 110.34 4826.01 111.208 4829.26 112.216C4835.19 114.008 4839.59 116.332 4842.45 119.188C4845.36 121.988 4846.81 125.908 4846.81 130.948ZM4880.04 101.884C4885.64 101.884 4889.76 103.956 4892.39 108.1C4895.02 112.188 4896.34 118.012 4896.34 125.572C4896.34 130.164 4895.64 134.28 4894.24 137.92C4892.9 141.504 4890.94 144.332 4888.36 146.404C4885.78 148.42 4882.73 149.428 4879.2 149.428C4874.89 149.428 4871.36 147.888 4868.62 144.808V165.22L4855.35 166.648V103.396H4867.11L4867.7 108.352C4869.43 106.168 4871.36 104.544 4873.49 103.48C4875.68 102.416 4877.86 101.884 4880.04 101.884ZM4875.93 111.712C4873.13 111.712 4870.69 113.448 4868.62 116.92V135.736C4869.57 137.08 4870.55 138.088 4871.56 138.76C4872.62 139.376 4873.83 139.684 4875.17 139.684C4877.64 139.684 4879.48 138.592 4880.72 136.408C4882 134.168 4882.65 130.612 4882.65 125.74C4882.65 120.476 4882.09 116.836 4880.97 114.82C4879.85 112.748 4878.17 111.712 4875.93 111.712ZM4917.22 129.604C4918.06 136.38 4921.65 139.768 4927.98 139.768C4931.78 139.768 4935.59 138.536 4939.4 136.072L4944.69 143.296C4942.51 145.2 4939.9 146.712 4936.88 147.832C4933.86 148.896 4930.52 149.428 4926.88 149.428C4921.9 149.428 4917.67 148.448 4914.2 146.488C4910.73 144.472 4908.1 141.7 4906.3 138.172C4904.57 134.588 4903.7 130.444 4903.7 125.74C4903.7 121.26 4904.54 117.228 4906.22 113.644C4907.96 110.004 4910.45 107.148 4913.7 105.076C4917 102.948 4920.92 101.884 4925.46 101.884C4929.71 101.884 4933.41 102.808 4936.54 104.656C4939.68 106.448 4942.09 109.08 4943.77 112.552C4945.5 115.968 4946.37 120.056 4946.37 124.816C4946.37 126.664 4946.29 128.26 4946.12 129.604H4917.22ZM4925.46 110.788C4923.05 110.788 4921.12 111.684 4919.66 113.476C4918.2 115.212 4917.34 117.9 4917.06 121.54H4933.44C4933.32 114.372 4930.66 110.788 4925.46 110.788ZM4967.59 129.604C4968.43 136.38 4972.02 139.768 4978.34 139.768C4982.15 139.768 4985.96 138.536 4989.77 136.072L4995.06 143.296C4992.88 145.2 4990.27 146.712 4987.25 147.832C4984.22 148.896 4980.89 149.428 4977.25 149.428C4972.27 149.428 4968.04 148.448 4964.57 146.488C4961.1 144.472 4958.46 141.7 4956.67 138.172C4954.94 134.588 4954.07 130.444 4954.07 125.74C4954.07 121.26 4954.91 117.228 4956.59 113.644C4958.32 110.004 4960.82 107.148 4964.06 105.076C4967.37 102.948 4971.29 101.884 4975.82 101.884C4980.08 101.884 4983.78 102.808 4986.91 104.656C4990.05 106.448 4992.46 109.08 4994.14 112.552C4995.87 115.968 4996.74 120.056 4996.74 124.816C4996.74 126.664 4996.66 128.26 4996.49 129.604H4967.59ZM4975.82 110.788C4973.42 110.788 4971.48 111.684 4970.03 113.476C4968.57 115.212 4967.7 117.9 4967.42 121.54H4983.8C4983.69 114.372 4981.03 110.788 4975.82 110.788Z" fill="white"/>
<rect x="5001" y="67" width="52" height="84" fill="white" fill-opacity="0.9"/>
<rect x="3966" width="661" height="456" rx="7" fill="black"/>
<path d="M3966 7C3966 3.13401 3969.13 0 3973 0H4620C4623.87 0 4627 3.13401 4627 7V50H3966V7Z" fill="#C4C4C4"/>
<circle cx="3994" cy="26" r="16" fill="#645F61"/>
<circle cx="4033" cy="26" r="16" fill="#827F80"/>
<circle cx="4072" cy="26" r="16" fill="#A7A3A4"/>
<circle cx="3994" cy="26" r="16" fill="#ED6A5E"/>
<circle cx="4033" cy="26" r="16" fill="#F5BD4F"/>
<circle cx="4072" cy="26" r="16" fill="#61C454"/>
<circle cx="3994" cy="26" r="16" fill="#ED6A5E"/>
<path fill-rule="evenodd" clip-rule="evenodd" d="M3994.13 27.9016L3999.45 33.2194L4001.22 31.4516L3995.9 26.1339L4001.22 20.8161L3999.45 19.0484L3994.13 24.3661L3988.82 19.0484L3987.05 20.8161L3992.37 26.1339L3987.05 31.4516L3988.82 33.2194L3994.13 27.9016Z" fill="black" fill-opacity="0.4"/>
<circle cx="4033" cy="26" r="16" fill="#F5BD4F"/>
<path d="M4042.42 26L4023 26" stroke="black" stroke-opacity="0.4" stroke-width="2.5"/>
<circle cx="4072" cy="26" r="16" fill="#61C454"/>
<path d="M4066.72 20.725L4076.17 20.725L4071.67 25.225L4066.72 30.175L4066.72 20.725Z" fill="#3C7934" fill-opacity="0.8"/>
<path d="M4077.78 31.775L4068.33 31.775L4072.83 27.275L4077.78 22.325L4077.78 31.775Z" fill="#3C7934" fill-opacity="0.8"/>
<path d="M4019.26 123.472H4005.14V148H3991.37V89.788H4005.14V112.132H4019.26V89.788H4033.03V148H4019.26V123.472ZM4062.48 80.044C4064.78 80.044 4066.66 80.772 4068.11 82.228C4069.57 83.628 4070.3 85.392 4070.3 87.52C4070.3 89.704 4069.57 91.496 4068.11 92.896C4066.66 94.296 4064.78 94.996 4062.48 94.996C4060.19 94.996 4058.28 94.296 4056.77 92.896C4055.32 91.44 4054.59 89.648 4054.59 87.52C4054.59 85.392 4055.32 83.628 4056.77 82.228C4058.28 80.772 4060.19 80.044 4062.48 80.044ZM4070.46 138.928H4081.89V148H4044.59V138.928H4057.19V112.468H4045.01V103.396H4070.46V138.928ZM4185.81 130.948C4185.81 134.588 4184.86 137.808 4182.96 140.608C4181.05 143.408 4178.31 145.592 4174.73 147.16C4171.2 148.672 4167 149.428 4162.13 149.428C4152.49 149.428 4144.82 146.628 4139.11 141.028L4146.08 133.3C4150.51 137.22 4155.74 139.18 4161.79 139.18C4164.7 139.18 4167.03 138.564 4168.76 137.332C4170.55 136.044 4171.45 134.28 4171.45 132.04C4171.45 129.912 4170.69 128.26 4169.18 127.084C4167.73 125.852 4164.98 124.62 4160.95 123.388C4154.12 121.316 4149.27 118.88 4146.42 116.08C4143.56 113.28 4142.13 109.668 4142.13 105.244C4142.13 101.772 4143.09 98.748 4144.99 96.172C4146.95 93.596 4149.58 91.636 4152.89 90.292C4156.25 88.948 4159.97 88.276 4164.06 88.276C4172.63 88.276 4179.57 90.796 4184.89 95.836L4178.42 103.312C4176.46 101.688 4174.33 100.484 4172.04 99.7C4169.8 98.86 4167.47 98.44 4165.07 98.44C4162.38 98.44 4160.25 98.944 4158.68 99.952C4157.17 100.904 4156.41 102.304 4156.41 104.152C4156.41 105.384 4156.75 106.42 4157.42 107.26C4158.15 108.1 4159.33 108.884 4160.95 109.612C4162.57 110.34 4165.01 111.208 4168.26 112.216C4174.19 114.008 4178.59 116.332 4181.45 119.188C4184.36 121.988 4185.81 125.908 4185.81 130.948ZM4219.04 101.884C4224.64 101.884 4228.76 103.956 4231.39 108.1C4234.02 112.188 4235.34 118.012 4235.34 125.572C4235.34 130.164 4234.64 134.28 4233.24 137.92C4231.9 141.504 4229.94 144.332 4227.36 146.404C4224.78 148.42 4221.73 149.428 4218.2 149.428C4213.89 149.428 4210.36 147.888 4207.62 144.808V165.22L4194.35 166.648V103.396H4206.11L4206.7 108.352C4208.43 106.168 4210.36 104.544 4212.49 103.48C4214.68 102.416 4216.86 101.884 4219.04 101.884ZM4214.93 111.712C4212.13 111.712 4209.69 113.448 4207.62 116.92V135.736C4208.57 137.08 4209.55 138.088 4210.56 138.76C4211.62 139.376 4212.83 139.684 4214.17 139.684C4216.64 139.684 4218.48 138.592 4219.72 136.408C4221 134.168 4221.65 130.612 4221.65 125.74C4221.65 120.476 4221.09 116.836 4219.97 114.82C4218.85 112.748 4217.17 111.712 4214.93 111.712ZM4256.22 129.604C4257.06 136.38 4260.65 139.768 4266.98 139.768C4270.78 139.768 4274.59 138.536 4278.4 136.072L4283.69 143.296C4281.51 145.2 4278.9 146.712 4275.88 147.832C4272.86 148.896 4269.52 149.428 4265.88 149.428C4260.9 149.428 4256.67 148.448 4253.2 146.488C4249.73 144.472 4247.1 141.7 4245.3 138.172C4243.57 134.588 4242.7 130.444 4242.7 125.74C4242.7 121.26 4243.54 117.228 4245.22 113.644C4246.96 110.004 4249.45 107.148 4252.7 105.076C4256 102.948 4259.92 101.884 4264.46 101.884C4268.71 101.884 4272.41 102.808 4275.54 104.656C4278.68 106.448 4281.09 109.08 4282.77 112.552C4284.5 115.968 4285.37 120.056 4285.37 124.816C4285.37 126.664 4285.29 128.26 4285.12 129.604H4256.22ZM4264.46 110.788C4262.05 110.788 4260.12 111.684 4258.66 113.476C4257.2 115.212 4256.34 117.9 4256.06 121.54H4272.44C4272.32 114.372 4269.66 110.788 4264.46 110.788Z" fill="white"/>
<rect x="4290" y="67" width="52" height="84" fill="white" fill-opacity="0.9"/>
<rect x="3305" width="661" height="456" rx="7" fill="black"/>
<path d="M3305 7C3305 3.13401 3308.13 0 3312 0H3959C3962.87 0 3966 3.13401 3966 7V50H3305V7Z" fill="#C4C4C4"/>
<circle cx="3333" cy="26" r="16" fill="#645F61"/>
<circle cx="3372" cy="26" r="16" fill="#827F80"/>
<circle cx="3411" cy="26" r="16" fill="#A7A3A4"/>
<circle cx="3333" cy="26" r="16" fill="#ED6A5E"/>
<circle cx="3372" cy="26" r="16" fill="#F5BD4F"/>
<circle cx="3411" cy="26" r="16" fill="#61C454"/>
<circle cx="3333" cy="26" r="16" fill="#ED6A5E"/>
<path fill-rule="evenodd" clip-rule="evenodd" d="M3333.13 27.9016L3338.45 33.2194L3340.22 31.4516L3334.9 26.1339L3340.22 20.8161L3338.45 19.0484L3333.13 24.3661L3327.82 19.0484L3326.05 20.8161L3331.37 26.1339L3326.05 31.4516L3327.82 33.2194L3333.13 27.9016Z" fill="black" fill-opacity="0.4"/>
<circle cx="3372" cy="26" r="16" fill="#F5BD4F"/>
<path d="M3381.42 26L3362 26" stroke="black" stroke-opacity="0.4" stroke-width="2.5"/>
<circle cx="3411" cy="26" r="16" fill="#61C454"/>
<path d="M3405.72 20.725L3415.17 20.725L3410.67 25.225L3405.72 30.175L3405.72 20.725Z" fill="#3C7934" fill-opacity="0.8"/>
<path d="M3416.78 31.775L3407.33 31.775L3411.83 27.275L3416.78 22.325L3416.78 31.775Z" fill="#3C7934" fill-opacity="0.8"/>
<path d="M3358.26 123.472H3344.14V148H3330.37V89.788H3344.14V112.132H3358.26V89.788H3372.03V148H3358.26V123.472ZM3401.48 80.044C3403.78 80.044 3405.66 80.772 3407.11 82.228C3408.57 83.628 3409.3 85.392 3409.3 87.52C3409.3 89.704 3408.57 91.496 3407.11 92.896C3405.66 94.296 3403.78 94.996 3401.48 94.996C3399.19 94.996 3397.28 94.296 3395.77 92.896C3394.32 91.44 3393.59 89.648 3393.59 87.52C3393.59 85.392 3394.32 83.628 3395.77 82.228C3397.28 80.772 3399.19 80.044 3401.48 80.044ZM3409.46 138.928H3420.89V148H3383.59V138.928H3396.19V112.468H3384.01V103.396H3409.46V138.928ZM3524.81 130.948C3524.81 134.588 3523.86 137.808 3521.96 140.608C3520.05 143.408 3517.31 145.592 3513.73 147.16C3510.2 148.672 3506 149.428 3501.13 149.428C3491.49 149.428 3483.82 146.628 3478.11 141.028L3485.08 133.3C3489.51 137.22 3494.74 139.18 3500.79 139.18C3503.7 139.18 3506.03 138.564 3507.76 137.332C3509.55 136.044 3510.45 134.28 3510.45 132.04C3510.45 129.912 3509.69 128.26 3508.18 127.084C3506.73 125.852 3503.98 124.62 3499.95 123.388C3493.12 121.316 3488.27 118.88 3485.42 116.08C3482.56 113.28 3481.13 109.668 3481.13 105.244C3481.13 101.772 3482.09 98.748 3483.99 96.172C3485.95 93.596 3488.58 91.636 3491.89 90.292C3495.25 88.948 3498.97 88.276 3503.06 88.276C3511.63 88.276 3518.57 90.796 3523.89 95.836L3517.42 103.312C3515.46 101.688 3513.33 100.484 3511.04 99.7C3508.8 98.86 3506.47 98.44 3504.07 98.44C3501.38 98.44 3499.25 98.944 3497.68 99.952C3496.17 100.904 3495.41 102.304 3495.41 104.152C3495.41 105.384 3495.75 106.42 3496.42 107.26C3497.15 108.1 3498.33 108.884 3499.95 109.612C3501.57 110.34 3504.01 111.208 3507.26 112.216C3513.19 114.008 3517.59 116.332 3520.45 119.188C3523.36 121.988 3524.81 125.908 3524.81 130.948ZM3558.04 101.884C3563.64 101.884 3567.76 103.956 3570.39 108.1C3573.02 112.188 3574.34 118.012 3574.34 125.572C3574.34 130.164 3573.64 134.28 3572.24 137.92C3570.9 141.504 3568.94 144.332 3566.36 146.404C3563.78 148.42 3560.73 149.428 3557.2 149.428C3552.89 149.428 3549.36 147.888 3546.62 144.808V165.22L3533.35 166.648V103.396H3545.11L3545.7 108.352C3547.43 106.168 3549.36 104.544 3551.49 103.48C3553.68 102.416 3555.86 101.884 3558.04 101.884ZM3553.93 111.712C3551.13 111.712 3548.69 113.448 3546.62 116.92V135.736C3547.57 137.08 3548.55 138.088 3549.56 138.76C3550.62 139.376 3551.83 139.684 3553.17 139.684C3555.64 139.684 3557.48 138.592 3558.72 136.408C3560 134.168 3560.65 130.612 3560.65 125.74C3560.65 120.476 3560.09 116.836 3558.97 114.82C3557.85 112.748 3556.17 111.712 3553.93 111.712Z" fill="white"/>
<rect x="3580" y="67" width="52" height="84" fill="white" fill-opacity="0.9"/>
<rect x="2644" width="661" height="456" rx="7" fill="black"/>
<path d="M2644 7C2644 3.13401 2647.13 0 2651 0H3298C3301.87 0 3305 3.13401 3305 7V50H2644V7Z" fill="#C4C4C4"/>
<circle cx="2672" cy="26" r="16" fill="#645F61"/>
<circle cx="2711" cy="26" r="16" fill="#827F80"/>
<circle cx="2750" cy="26" r="16" fill="#A7A3A4"/>
<circle cx="2672" cy="26" r="16" fill="#ED6A5E"/>
<circle cx="2711" cy="26" r="16" fill="#F5BD4F"/>
<circle cx="2750" cy="26" r="16" fill="#61C454"/>
<circle cx="2672" cy="26" r="16" fill="#ED6A5E"/>
<path fill-rule="evenodd" clip-rule="evenodd" d="M2672.13 27.9016L2677.45 33.2194L2679.22 31.4516L2673.9 26.1339L2679.22 20.8161L2677.45 19.0484L2672.13 24.3661L2666.82 19.0484L2665.05 20.8161L2670.37 26.1339L2665.05 31.4516L2666.82 33.2194L2672.13 27.9016Z" fill="black" fill-opacity="0.4"/>
<circle cx="2711" cy="26" r="16" fill="#F5BD4F"/>
<path d="M2720.42 26L2701 26" stroke="black" stroke-opacity="0.4" stroke-width="2.5"/>
<circle cx="2750" cy="26" r="16" fill="#61C454"/>
<path d="M2744.72 20.725L2754.17 20.725L2749.67 25.225L2744.72 30.175L2744.72 20.725Z" fill="#3C7934" fill-opacity="0.8"/>
<path d="M2755.78 31.775L2746.33 31.775L2750.83 27.275L2755.78 22.325L2755.78 31.775Z" fill="#3C7934" fill-opacity="0.8"/>
<path d="M2697.26 123.472H2683.14V148H2669.37V89.788H2683.14V112.132H2697.26V89.788H2711.03V148H2697.26V123.472ZM2740.48 80.044C2742.78 80.044 2744.66 80.772 2746.11 82.228C2747.57 83.628 2748.3 85.392 2748.3 87.52C2748.3 89.704 2747.57 91.496 2746.11 92.896C2744.66 94.296 2742.78 94.996 2740.48 94.996C2738.19 94.996 2736.28 94.296 2734.77 92.896C2733.32 91.44 2732.59 89.648 2732.59 87.52C2732.59 85.392 2733.32 83.628 2734.77 82.228C2736.28 80.772 2738.19 80.044 2740.48 80.044ZM2748.46 138.928H2759.89V148H2722.59V138.928H2735.19V112.468H2723.01V103.396H2748.46V138.928ZM2863.81 130.948C2863.81 134.588 2862.86 137.808 2860.96 140.608C2859.05 143.408 2856.31 145.592 2852.73 147.16C2849.2 148.672 2845 149.428 2840.13 149.428C2830.49 149.428 2822.82 146.628 2817.11 141.028L2824.08 133.3C2828.51 137.22 2833.74 139.18 2839.79 139.18C2842.7 139.18 2845.03 138.564 2846.76 137.332C2848.55 136.044 2849.45 134.28 2849.45 132.04C2849.45 129.912 2848.69 128.26 2847.18 127.084C2845.73 125.852 2842.98 124.62 2838.95 123.388C2832.12 121.316 2827.27 118.88 2824.42 116.08C2821.56 113.28 2820.13 109.668 2820.13 105.244C2820.13 101.772 2821.09 98.748 2822.99 96.172C2824.95 93.596 2827.58 91.636 2830.89 90.292C2834.25 88.948 2837.97 88.276 2842.06 88.276C2850.63 88.276 2857.57 90.796 2862.89 95.836L2856.42 103.312C2854.46 101.688 2852.33 100.484 2850.04 99.7C2847.8 98.86 2845.47 98.44 2843.07 98.44C2840.38 98.44 2838.25 98.944 2836.68 99.952C2835.17 100.904 2834.41 102.304 2834.41 104.152C2834.41 105.384 2834.75 106.42 2835.42 107.26C2836.15 108.1 2837.33 108.884 2838.95 109.612C2840.57 110.34 2843.01 111.208 2846.26 112.216C2852.19 114.008 2856.59 116.332 2859.45 119.188C2862.36 121.988 2863.81 125.908 2863.81 130.948Z" fill="white"/>
<rect x="2867" y="67" width="52" height="84" fill="white" fill-opacity="0.9"/>
<rect x="1983" width="661" height="456" rx="7" fill="black"/>
<path d="M1983 7C1983 3.13401 1986.13 0 1990 0H2637C2640.87 0 2644 3.13401 2644 7V50H1983V7Z" fill="#C4C4C4"/>
<circle cx="2011" cy="26" r="16" fill="#645F61"/>
<circle cx="2050" cy="26" r="16" fill="#827F80"/>
<circle cx="2089" cy="26" r="16" fill="#A7A3A4"/>
<circle cx="2011" cy="26" r="16" fill="#ED6A5E"/>
<circle cx="2050" cy="26" r="16" fill="#F5BD4F"/>
<circle cx="2089" cy="26" r="16" fill="#61C454"/>
<circle cx="2011" cy="26" r="16" fill="#ED6A5E"/>
<path fill-rule="evenodd" clip-rule="evenodd" d="M2011.13 27.9016L2016.45 33.2194L2018.22 31.4516L2012.9 26.1339L2018.22 20.8161L2016.45 19.0484L2011.13 24.3661L2005.82 19.0484L2004.05 20.8161L2009.37 26.1339L2004.05 31.4516L2005.82 33.2194L2011.13 27.9016Z" fill="black" fill-opacity="0.4"/>
<circle cx="2050" cy="26" r="16" fill="#F5BD4F"/>
<path d="M2059.42 26L2040 26" stroke="black" stroke-opacity="0.4" stroke-width="2.5"/>
<circle cx="2089" cy="26" r="16" fill="#61C454"/>
<path d="M2083.72 20.725L2093.17 20.725L2088.67 25.225L2083.72 30.175L2083.72 20.725Z" fill="#3C7934" fill-opacity="0.8"/>
<path d="M2094.78 31.775L2085.33 31.775L2089.83 27.275L2094.78 22.325L2094.78 31.775Z" fill="#3C7934" fill-opacity="0.8"/>
<path d="M2036.26 123.472H2022.14V148H2008.37V89.788H2022.14V112.132H2036.26V89.788H2050.03V148H2036.26V123.472ZM2079.48 80.044C2081.78 80.044 2083.66 80.772 2085.11 82.228C2086.57 83.628 2087.3 85.392 2087.3 87.52C2087.3 89.704 2086.57 91.496 2085.11 92.896C2083.66 94.296 2081.78 94.996 2079.48 94.996C2077.19 94.996 2075.28 94.296 2073.77 92.896C2072.32 91.44 2071.59 89.648 2071.59 87.52C2071.59 85.392 2072.32 83.628 2073.77 82.228C2075.28 80.772 2077.19 80.044 2079.48 80.044ZM2087.46 138.928H2098.89V148H2061.59V138.928H2074.19V112.468H2062.01V103.396H2087.46V138.928Z" fill="white"/>
<rect x="2154" y="67" width="52" height="84" fill="white" fill-opacity="0.9"/>
<rect x="1322" width="661" height="456" rx="7" fill="black"/>
<path d="M1322 7C1322 3.13401 1325.13 0 1329 0H1976C1979.87 0 1983 3.13401 1983 7V50H1322V7Z" fill="#C4C4C4"/>
<circle cx="1350" cy="26" r="16" fill="#645F61"/>
<circle cx="1389" cy="26" r="16" fill="#827F80"/>
<circle cx="1428" cy="26" r="16" fill="#A7A3A4"/>
<circle cx="1350" cy="26" r="16" fill="#ED6A5E"/>
<circle cx="1389" cy="26" r="16" fill="#F5BD4F"/>
<circle cx="1428" cy="26" r="16" fill="#61C454"/>
<circle cx="1350" cy="26" r="16" fill="#ED6A5E"/>
<path fill-rule="evenodd" clip-rule="evenodd" d="M1350.13 27.9016L1355.45 33.2194L1357.22 31.4516L1351.9 26.1339L1357.22 20.8161L1355.45 19.0484L1350.13 24.3661L1344.82 19.0484L1343.05 20.8161L1348.37 26.1339L1343.05 31.4516L1344.82 33.2194L1350.13 27.9016Z" fill="black" fill-opacity="0.4"/>
<circle cx="1389" cy="26" r="16" fill="#F5BD4F"/>
<path d="M1398.42 26L1379 26" stroke="black" stroke-opacity="0.4" stroke-width="2.5"/>
<circle cx="1428" cy="26" r="16" fill="#61C454"/>
<path d="M1422.73 20.725L1432.18 20.725L1427.68 25.225L1422.73 30.175L1422.73 20.725Z" fill="#3C7934" fill-opacity="0.8"/>
<path d="M1433.77 31.775L1424.32 31.775L1428.82 27.275L1433.77 22.325L1433.77 31.775Z" fill="#3C7934" fill-opacity="0.8"/>
<path d="M1375.26 123.472H1361.14V148H1347.37V89.788H1361.14V112.132H1375.26V89.788H1389.03V148H1375.26V123.472ZM1418.48 80.044C1420.78 80.044 1422.66 80.772 1424.11 82.228C1425.57 83.628 1426.3 85.392 1426.3 87.52C1426.3 89.704 1425.57 91.496 1424.11 92.896C1422.66 94.296 1420.78 94.996 1418.48 94.996C1416.19 94.996 1414.28 94.296 1412.77 92.896C1411.32 91.44 1410.59 89.648 1410.59 87.52C1410.59 85.392 1411.32 83.628 1412.77 82.228C1414.28 80.772 1416.19 80.044 1418.48 80.044ZM1426.46 138.928H1437.89V148H1400.59V138.928H1413.19V112.468H1401.01V103.396H1426.46V138.928Z" fill="white"/>
<rect x="1442" y="67" width="52" height="84" fill="white" fill-opacity="0.9"/>
<rect x="661" width="661" height="456" rx="7" fill="black"/>
<path d="M661 7C661 3.13401 664.134 0 668 0H1315C1318.87 0 1322 3.13401 1322 7V50H661V7Z" fill="#C4C4C4"/>
<circle cx="689" cy="26" r="16" fill="#645F61"/>
<circle cx="728" cy="26" r="16" fill="#827F80"/>
<circle cx="767" cy="26" r="16" fill="#A7A3A4"/>
<circle cx="689" cy="26" r="16" fill="#ED6A5E"/>
<circle cx="728" cy="26" r="16" fill="#F5BD4F"/>
<circle cx="767" cy="26" r="16" fill="#61C454"/>
<circle cx="689" cy="26" r="16" fill="#ED6A5E"/>
<path fill-rule="evenodd" clip-rule="evenodd" d="M689.134 27.9016L694.452 33.2194L696.219 31.4516L690.902 26.1339L696.219 20.8161L694.452 19.0484L689.134 24.3661L683.816 19.0484L682.048 20.8161L687.366 26.1339L682.048 31.4516L683.816 33.2194L689.134 27.9016Z" fill="black" fill-opacity="0.4"/>
<circle cx="728" cy="26" r="16" fill="#F5BD4F"/>
<path d="M737.417 26L718 26" stroke="black" stroke-opacity="0.4" stroke-width="2.5"/>
<circle cx="767" cy="26" r="16" fill="#61C454"/>
<path d="M761.725 20.725L771.175 20.725L766.675 25.225L761.725 30.175L761.725 20.725Z" fill="#3C7934" fill-opacity="0.8"/>
<path d="M772.775 31.775L763.325 31.775L767.825 27.275L772.775 22.325L772.775 31.775Z" fill="#3C7934" fill-opacity="0.8"/>
<path d="M714.256 123.472H700.144V148H686.368V89.788H700.144V112.132H714.256V89.788H728.032V148H714.256V123.472Z" fill="white"/>
<rect x="733" y="67" width="52" height="84" fill="white" fill-opacity="0.9"/>
<rect width="661" height="456" rx="7" fill="black"/>
<path d="M0 7C0 3.13401 3.13401 0 7 0H654C657.866 0 661 3.13401 661 7V50H0V7Z" fill="#C4C4C4"/>
<circle cx="28" cy="26" r="16" fill="#645F61"/>
<circle cx="67" cy="26" r="16" fill="#827F80"/>
<circle cx="106" cy="26" r="16" fill="#A7A3A4"/>
<circle cx="28" cy="26" r="16" fill="#ED6A5E"/>
<circle cx="67" cy="26" r="16" fill="#F5BD4F"/>
<circle cx="106" cy="26" r="16" fill="#61C454"/>
<circle cx="28" cy="26" r="16" fill="#ED6A5E"/>
<path fill-rule="evenodd" clip-rule="evenodd" d="M26.3661 26.1339L21.0484 31.4516L22.8161 33.2194L28.1339 27.9016L33.4516 33.2194L35.2194 31.4516L29.9016 26.1339L35.2194 20.8161L33.4516 19.0484L28.1339 24.3661L22.8161 19.0484L21.0483 20.8161L26.3661 26.1339Z" fill="black" fill-opacity="0.4"/>
<circle cx="67" cy="26" r="16" fill="#F5BD4F"/>
<path d="M76.4173 26L57 26" stroke="black" stroke-opacity="0.4" stroke-width="2.5"/>
<circle cx="106" cy="26" r="16" fill="#61C454"/>
<path d="M100.725 20.725L110.175 20.725L105.675 25.225L100.725 30.175L100.725 20.725Z" fill="#3C7934" fill-opacity="0.8"/>
<path d="M111.775 31.775L102.325 31.775L106.825 27.275L111.775 22.325L111.775 31.775Z" fill="#3C7934" fill-opacity="0.8"/>
<rect x="25" y="67" width="52" height="84" fill="white" fill-opacity="0.9"/>
</svg>
