<svg width="661" height="456" viewBox="0 0 661 456" fill="none" xmlns="http://www.w3.org/2000/svg">
<rect width="661" height="456" rx="7" fill="black"/>
<path d="M0 7C0 3.13401 3.13401 0 7 0H654C657.866 0 661 3.13401 661 7V50H0V7Z" fill="#C4C4C4"/>
<circle cx="28" cy="26" r="16" fill="#645F61"/>
<circle cx="67" cy="26" r="16" fill="#827F80"/>
<circle cx="106" cy="26" r="16" fill="#A7A3A4"/>
<circle cx="28" cy="26" r="16" fill="#ED6A5E"/>
<circle cx="67" cy="26" r="16" fill="#F5BD4F"/>
<circle cx="106" cy="26" r="16" fill="#61C454"/>
<circle cx="28" cy="26" r="16" fill="#ED6A5E"/>
<path fill-rule="evenodd" clip-rule="evenodd" d="M28.1344 27.9016L33.4521 33.2194L35.2199 31.4516L29.9021 26.1339L35.2199 20.8161L33.4521 19.0484L28.1344 24.3661L22.8166 19.0484L21.0488 20.8161L26.3666 26.1339L21.0488 31.4516L22.8166 33.2194L28.1344 27.9016Z" fill="black" fill-opacity="0.4"/>
<circle cx="67" cy="26" r="16" fill="#F5BD4F"/>
<path d="M76.417 26L56.9998 26" stroke="black" stroke-opacity="0.4" stroke-width="2.5"/>
<circle cx="106" cy="26" r="16" fill="#61C454"/>
<path d="M100.725 20.725L110.175 20.725L105.675 25.225L100.725 30.175L100.725 20.725Z" fill="#3C7934" fill-opacity="0.8"/>
<path d="M111.775 31.775L102.325 31.775L106.825 27.275L111.775 22.325L111.775 31.775Z" fill="#3C7934" fill-opacity="0.8"/>
<path d="M53.256 123.472H39.144V148H25.368V89.788H39.144V112.132H53.256V89.788H67.032V148H53.256V123.472ZM96.4832 80.044C98.7792 80.044 100.655 80.772 102.111 82.228C103.567 83.628 104.295 85.392 104.295 87.52C104.295 89.704 103.567 91.496 102.111 92.896C100.655 94.296 98.7792 94.996 96.4832 94.996C94.1872 94.996 92.2832 94.296 90.7712 92.896C89.3152 91.44 88.5872 89.648 88.5872 87.52C88.5872 85.392 89.3152 83.628 90.7712 82.228C92.2832 80.772 94.1872 80.044 96.4832 80.044ZM104.463 138.928H115.887V148H78.5912V138.928H91.1912V112.468H79.0112V103.396H104.463V138.928ZM219.814 130.948C219.814 134.588 218.862 137.808 216.958 140.608C215.054 143.408 212.31 145.592 208.726 147.16C205.198 148.672 200.998 149.428 196.126 149.428C186.494 149.428 178.822 146.628 173.11 141.028L180.082 133.3C184.506 137.22 189.742 139.18 195.79 139.18C198.702 139.18 201.026 138.564 202.762 137.332C204.554 136.044 205.45 134.28 205.45 132.04C205.45 129.912 204.694 128.26 203.182 127.084C201.726 125.852 198.982 124.62 194.95 123.388C188.118 121.316 183.274 118.88 180.418 116.08C177.562 113.28 176.134 109.668 176.134 105.244C176.134 101.772 177.086 98.748 178.99 96.172C180.95 93.596 183.582 91.636 186.886 90.292C190.246 88.948 193.97 88.276 198.058 88.276C206.626 88.276 213.57 90.796 218.89 95.836L212.422 103.312C210.462 101.688 208.334 100.484 206.038 99.7C203.798 98.86 201.474 98.44 199.066 98.44C196.378 98.44 194.25 98.944 192.682 99.952C191.17 100.904 190.414 102.304 190.414 104.152C190.414 105.384 190.75 106.42 191.422 107.26C192.15 108.1 193.326 108.884 194.95 109.612C196.574 110.34 199.01 111.208 202.258 112.216C208.194 114.008 212.59 116.332 215.446 119.188C218.358 121.988 219.814 125.908 219.814 130.948ZM253.045 101.884C258.645 101.884 262.761 103.956 265.393 108.1C268.025 112.188 269.341 118.012 269.341 125.572C269.341 130.164 268.641 134.28 267.241 137.92C265.897 141.504 263.937 144.332 261.361 146.404C258.785 148.42 255.733 149.428 252.205 149.428C247.893 149.428 244.365 147.888 241.621 144.808V165.22L228.349 166.648V103.396H240.109L240.697 108.352C242.433 106.168 244.365 104.544 246.493 103.48C248.677 102.416 250.861 101.884 253.045 101.884ZM248.929 111.712C246.129 111.712 243.693 113.448 241.621 116.92V135.736C242.573 137.08 243.553 138.088 244.561 138.76C245.625 139.376 246.829 139.684 248.173 139.684C250.637 139.684 252.485 138.592 253.717 136.408C255.005 134.168 255.649 130.612 255.649 125.74C255.649 120.476 255.089 116.836 253.969 114.82C252.849 112.748 251.169 111.712 248.929 111.712ZM290.224 129.604C291.064 136.38 294.648 139.768 300.976 139.768C304.784 139.768 308.592 138.536 312.4 136.072L317.692 143.296C315.508 145.2 312.904 146.712 309.88 147.832C306.856 148.896 303.524 149.428 299.884 149.428C294.9 149.428 290.672 148.448 287.2 146.488C283.728 144.472 281.096 141.7 279.304 138.172C277.568 134.588 276.7 130.444 276.7 125.74C276.7 121.26 277.54 117.228 279.22 113.644C280.956 110.004 283.448 107.148 286.696 105.076C290 102.948 293.92 101.884 298.456 101.884C302.712 101.884 306.408 102.808 309.544 104.656C312.68 106.448 315.088 109.08 316.768 112.552C318.504 115.968 319.372 120.056 319.372 124.816C319.372 126.664 319.288 128.26 319.12 129.604H290.224ZM298.456 110.788C296.048 110.788 294.116 111.684 292.66 113.476C291.204 115.212 290.336 117.9 290.056 121.54H306.436C306.324 114.372 303.664 110.788 298.456 110.788ZM340.591 129.604C341.431 136.38 345.015 139.768 351.343 139.768C355.151 139.768 358.959 138.536 362.767 136.072L368.059 143.296C365.875 145.2 363.271 146.712 360.247 147.832C357.223 148.896 353.891 149.428 350.251 149.428C345.267 149.428 341.039 148.448 337.567 146.488C334.095 144.472 331.463 141.7 329.671 138.172C327.935 134.588 327.067 130.444 327.067 125.74C327.067 121.26 327.907 117.228 329.587 113.644C331.323 110.004 333.815 107.148 337.063 105.076C340.367 102.948 344.287 101.884 348.823 101.884C353.079 101.884 356.775 102.808 359.911 104.656C363.047 106.448 365.455 109.08 367.135 112.552C368.871 115.968 369.739 120.056 369.739 124.816C369.739 126.664 369.655 128.26 369.487 129.604H340.591ZM348.823 110.788C346.415 110.788 344.483 111.684 343.027 113.476C341.571 115.212 340.703 117.9 340.423 121.54H356.803C356.691 114.372 354.031 110.788 348.823 110.788ZM392.722 148H379.45V85.672L392.722 84.244V148ZM407.086 123.136L422.962 148H407.842L393.226 123.556L407.926 103.396H421.786L407.086 123.136Z" fill="white"/>
</svg>
